<?xml version="1.0" encoding="UTF-8"?>
<svg version="1.1" xmlns="http://www.w3.org/2000/svg" width="512" height="512">
<path d="M0 0 C1.21792236 0.33862061 1.21792236 0.33862061 2.46044922 0.68408203 C33.22280771 9.54432679 58.9121537 27.42599454 75.75 54.875 C82.51829771 67.14075232 86.45873739 80.27802902 90.16796875 93.703125 C90.64444058 95.40321444 91.1216803 97.10308883 91.59962463 98.80276489 C92.61190601 102.40843855 93.61914153 106.01546601 94.62219238 109.62371826 C96.21225196 115.34341323 97.81367372 121.05988854 99.41699219 126.77587891 C101.05266812 132.60912836 102.68767525 138.44255975 104.31863403 144.27713013 C108.70964326 159.98504496 113.14905949 175.678816 117.6105957 191.36682129 C119.50594819 198.03252248 121.39531286 204.69992276 123.28515625 211.3671875 C123.66354353 212.70206711 124.04193098 214.03694666 124.4203186 215.37182617 C125.00054812 217.41876896 125.58076655 219.46571488 126.16094398 221.51267242 C127.22396008 225.26300322 128.28735458 229.01322629 129.35125732 232.76330566 C131.94821968 241.91741191 134.54269214 251.07221303 137.13099098 260.22877312 C138.26586478 264.24331732 139.40204977 268.25747877 140.54162598 272.27069092 C141.59982478 275.99748587 142.65435019 279.72530012 143.70601082 283.45394516 C144.09401421 284.8271293 144.48336862 286.19993249 144.8741436 287.57233047 C145.40824218 289.44888619 145.93705305 291.32694449 146.46557617 293.20507812 C146.76356613 294.25763794 147.06155609 295.31019775 147.36857605 296.39465332 C148 299 148 299 148 302 C65.17 302 -17.66 302 -103 302 C-101.88888889 254.22222222 -101.88888889 254.22222222 -100.890625 231.70703125 C-101.14393414 227.52643308 -101.37047072 225.68723786 -104.21850586 222.578125 C-107.06127002 220.53764496 -109.99084485 218.78265463 -113 217 C-115.85044528 214.61573744 -118.45718324 212.02285254 -121.0625 209.375 C-121.74441406 208.6840625 -122.42632812 207.993125 -123.12890625 207.28125 C-146.80114712 182.80200092 -157.67544989 150.01499436 -157.20703125 116.31640625 C-156.21911541 82.91515363 -141.28914939 52.74327376 -117.5625 29.625 C-86.72992228 1.10486561 -40.93901314 -11.40518552 0 0 Z M-97 67.875 C-101.12037601 73.13938629 -102.50546787 77.99981223 -102.3046875 84.63671875 C-101.34979509 92.04325603 -97.75879221 97.04652719 -92.00390625 101.625 C-86.81168649 105.1876927 -81.14217475 105.93660771 -75 105 C-67.59787712 102.59961324 -62.81811502 98.75512657 -59 92 C-56.42356512 86.26157686 -56.189923 80.89618138 -58.1875 74.9375 C-61.0626491 68.02376937 -65.44029638 64.22021814 -72 61 C-80.95867992 57.64049503 -90.75212752 61.08043868 -97 67.875 Z " fill="#000000" transform="translate(313,159)"/>
<path d="M0 0 C2.38868715 1.89658167 4.69271794 3.84982752 6.97265625 5.875 C8.17797953 6.87862604 9.38586194 7.87919681 10.59765625 8.875 C11.77328125 9.865 11.77328125 9.865 12.97265625 10.875 C13.50761719 10.14410156 14.04257812 9.41320312 14.59375 8.66015625 C22.29869813 -0.36057941 35.1503539 -7.29065094 47.05639648 -8.30200195 C65.94381194 -8.82221937 80.58144648 -5.6921855 94.68359375 7.55859375 C105.83396877 18.84216438 110.00166043 32.31351433 110.97265625 47.875 C111.74867188 47.71902344 112.5246875 47.56304687 113.32421875 47.40234375 C128.38975005 44.68767164 141.77149592 45.79784857 154.66015625 54.4375 C164.43442892 61.96368996 171.050604 72.64212538 172.97265625 84.875 C173.8701513 99.97708011 171.06519035 111.77124921 161.28515625 123.5625 C155.20129894 130.12756637 147.52258292 134.36898701 138.97265625 136.875 C137.02734375 136.8046875 137.02734375 136.8046875 134.97265625 135.875 C133.34060413 133.96798258 131.91008585 132.10631334 130.47265625 130.0625 C108.39597813 100.23405194 74.94483373 84.66580393 38.97265625 78.875 C35.29434268 78.34314178 31.68601444 78.00285515 27.97265625 77.875 C26.9259375 77.83503906 25.87921875 77.79507813 24.80078125 77.75390625 C-15.10296666 76.98652648 -50.22682117 92.95983894 -79.02734375 119.875 C-96.05380803 111.36176786 -105.45406376 96.14417784 -112.12890625 79.0546875 C-117.53041241 61.73957895 -114.75954567 41.62098506 -107.21484375 25.5 C-104.33813513 20.13396996 -101.05542221 15.43372353 -97.02734375 10.875 C-96.30933594 10.05128906 -95.59132812 9.22757813 -94.8515625 8.37890625 C-70.283372 -18.03893525 -28.96223076 -20.32961746 0 0 Z " fill="#000000" transform="translate(260.02734375,64.125)"/>
<path d="M0 0 C2.20414799 2.03979335 3.62554808 3.89820974 4.9453125 6.58984375 C5.29529297 7.28585693 5.64527344 7.98187012 6.00585938 8.69897461 C6.37517578 9.43768799 6.74449219 10.17640137 7.125 10.9375 C14.22934137 24.71601429 26.59250719 44.63944355 40.73313904 51.88847351 C42.9027091 53.06572315 44.3761021 54.12914593 46 56 C47.01682003 59.89397638 46.8662775 63.6847834 46.74609375 67.6875 C46.73296646 68.82276123 46.71983917 69.95802246 46.70631409 71.12768555 C46.66856643 73.52524397 46.61279047 75.92257688 46.5402832 78.31933594 C46.43784306 81.98771509 46.415406 85.65065426 46.40039062 89.3203125 C46.35378082 91.65114309 46.30250458 93.98188602 46.24609375 96.3125 C46.24355087 97.40844482 46.241008 98.50438965 46.23838806 99.63354492 C45.934437 107.04640977 45.934437 107.04640977 43.24908447 109.7868042 C41.20402561 111.09488377 39.24918327 112.09445661 37 113 C35.94554687 113.43828125 34.89109375 113.8765625 33.8046875 114.328125 C32.83789062 114.63234375 31.87109375 114.9365625 30.875 115.25 C29.90304688 115.56453125 28.93109375 115.8790625 27.9296875 116.203125 C12.93233431 120.28240507 -3.14016578 118.30282727 -16.9375 111.25 C-27.61098421 104.81710547 -35.82388864 96.15853287 -39.4375 83.9375 C-41.96796325 66.22425722 -35.33162958 51.27596423 -27 36 C-26.36423985 34.79314963 -25.72881496 33.58612258 -25.09375 32.37890625 C-18.48756052 20.2359719 -10.17506944 9.38788642 0 0 Z " fill="#000000" transform="translate(152,335)"/>
<path d="M0 0 C1 2 1 2 0.45849609 3.72973633 C0.14992676 4.42349365 -0.15864258 5.11725098 -0.4765625 5.83203125 C-0.98497681 7.01502808 -0.98497681 7.01502808 -1.50366211 8.22192383 C-1.87370361 9.07681396 -2.24374512 9.9317041 -2.625 10.8125 C-9.764324 27.90531359 -13.17771684 45.13482737 -13.1875 63.625 C-13.19974609 64.81996094 -13.21199219 66.01492188 -13.22460938 67.24609375 C-13.23616126 74.35435375 -12.70838513 81.08005655 -11.4309082 88.07568359 C-10.98639615 91.09232117 -10.92839818 93.95536624 -11 97 C-23.99268877 91.25210658 -36.83067165 85.24930531 -49.57601929 78.97262573 C-54.25844328 76.66668766 -58.94592879 74.37107493 -63.6328125 72.07421875 C-64.54038803 71.62911453 -65.44796356 71.18401031 -66.38304138 70.72541809 C-74.33191208 66.82979281 -82.30664565 62.99110878 -90.30395508 59.19580078 C-95.23346486 56.85540158 -100.1269366 54.45602396 -105 52 C-105 51.34 -105 50.68 -105 50 C-103.47005208 49.265625 -101.94010417 48.53125 -100.41015625 47.796875 C-98.91270874 47.07806152 -98.91270874 47.07806152 -97.38500977 46.34472656 C-95.13167271 45.26317776 -92.87825202 44.18180319 -90.62475586 43.10058594 C-85.07085128 40.43557192 -79.51782707 37.76880309 -73.96875 35.09375 C-60.47126588 28.59193362 -46.93000358 22.1871419 -33.36987305 15.81738281 C-22.22824994 10.58317226 -11.10560334 5.31026551 0 0 Z " fill="#000000" transform="translate(156,216)"/>
</svg>
